<svg xmlns="http://www.w3.org/2000/svg" width="410" height="404" viewBox="0 0 410 404" fill="none">
  <defs>
    <linearGradient id="g1" x1="-64.5" y1="42.5" x2="184.5" y2="286.5" gradientUnits="userSpaceOnUse">
      <stop stop-color="#41D1FF"/>
      <stop offset="1" stop-color="#BD34FE"/>
    </linearGradient>
    <linearGradient id="g2" x1="33" y1="-27" x2="389.5" y2="135" gradientUnits="userSpaceOnUse">
      <stop stop-color="#FFEA83"/>
      <stop offset="0.0833" stop-color="#FFDD35"/>
      <stop offset="1" stop-color="#FFA800"/>
    </linearGradient>
  </defs>
  <path d="M399.641 59.5246L215.643 388.545C211.743 395.542 201.741 395.593 197.768 388.643L10.3552 59.5324C6.07746 52.0344 12.3775 43.1277 20.4523 44.7586L205.223 81.3515C206.398 81.586 207.601 81.5858 208.776 81.3509L389.505 44.7714C397.556 43.1263 403.871 52.0018 399.637 59.512L399.641 59.5246Z" fill="url(#g1)"/>
  <path d="M292.965 1.5744L156.874 28.2552C154.563 28.7082 152.738 30.561 152.346 32.8782L132.844 148.26C132.234 151.876 135.429 154.93 139.015 154.237L176.692 147.067C180.421 146.349 183.768 149.56 183.149 153.302L171.51 224.178C170.871 228.05 174.369 231.242 178.142 230.274L199.35 224.78C203.131 223.81 206.635 227.017 205.987 230.894L189.594 328.316C188.626 334.056 196.282 336.808 199.242 331.846L200.973 328.973L323.808 102.514C325.609 99.0581 322.608 95.0497 318.756 95.8016L280.323 103.199C276.517 103.942 273.406 100.572 274.29 96.8065L301.701 1.93902C302.592 -1.86765 299.367 -5.26243 295.525 -4.49237L292.965 1.5744Z" fill="url(#g2)"/>
</svg>

